<svg id="图层_1" data-name="图层 1" xmlns="http://www.w3.org/2000/svg" viewBox="0 0 992 408"><defs><style>.cls-1{fill:#307659;}</style></defs><title>merci logo verRuta</title><path class="cls-1" d="M521.83,145.64h23q-16.7,13-50.47,80.16-50.1,100.95-50.1,145.1,0,20.42,13,20.41,5.94,0,14.48-4.82h.37c.74,0,1.11.62,1.11,1.85q0,7.05-18.74,13.36T423.86,408Q399,408,399,380.92q0-47.13,75.7-190.37-14.83,14.1-20,20Q419,250.3,348.53,342q-14.85,18.93-20.41,23.75t-14.66,4.83q-9.09,0-21-5.57,9.27-11.86,9.27-72.18t-7.42-109.66Q281,208,246.11,293.71T211.22,401.33a9.08,9.08,0,0,0,.38,3.34H177.45q21.17-54.18,60.49-142.87t47.88-105.4A170,170,0,0,0,220,169.76q-32.12,13.37-37.67,31.18a1.46,1.46,0,0,1-1.49,1.11c-2,0-3-1.61-3-4.82a102.32,102.32,0,0,1,3-10q3-9.28,11.32-19.3a52.3,52.3,0,0,1,19.49-14.85q18.17-7.41,44.9-7.42h47.13q11.13,0,17.63,3.71T330.35,167q2.59,13.92,5,64.2t2.41,70.7q0,20.4-.74,27.83,53.06-66.42,137.3-166.63Q489.18,145.65,521.83,145.64Z"/><path class="cls-1" d="M636.87,308.18c1.49,0,2.23,2.42,2.23,7.24s-2,10.58-5.94,17.26-7.85,13-11.69,18.92a243.77,243.77,0,0,1-15.4,20.78,113.59,113.59,0,0,1-18.92,18.93q-23.39,17.07-46.95,17.07t-38-12.06q-14.46-12.06-14.47-36.92,0-37.86,27.84-70.14T580.47,257q16.69,0,26.72,8.72t10,21q0,20.79-19.67,33.4t-46.39,12.62q-15.58,0-23-4.09-7,18.93-7,33.4,0,31.18,26.35,31.18,15.59,0,32.1-12.06a140.26,140.26,0,0,0,28.2-27.1q11.7-15,26.54-43.23C635.26,309.05,636.13,308.18,636.87,308.18Zm-39.33-29.31q0-10.77-10.39-10.76-14.48,0-32.29,17.81t-17.81,28.94q0,7.44,14.1,7.43t29.5-13.73Q596.05,294.84,597.54,278.87Z"/><path class="cls-1" d="M720.74,255.49l18.92.37h3.71q-5.57,4.08-15.77,24.12t-15.21,30.25a268.58,268.58,0,0,0-11.14,27.46q-6.12,17.25-6.12,28t7.42,10.77q4.83-.37,13.55-6.87a77.37,77.37,0,0,0,14.47-13.73,182,182,0,0,0,12.62-18.55Q750,326,755.06,317.65t5.76-8.35c1.72,0,2.59,2.29,2.59,6.86a25.68,25.68,0,0,1-3.71,13.18q-16,26.36-26.35,40.45a136.64,136.64,0,0,1-25.05,25.79q-14.65,11.69-26.53,11.69-21.15,0-21.15-31.17,0-21.17,8.16-47.88a207.53,207.53,0,0,1,24.12-51.58q-13,10.39-26,10.39a22.1,22.1,0,0,1-8.54-1.85Q632,337.14,630,337.13T628,331q0-6.13,4.64-17.07t10-21q5.37-10,5.75-11.13Q635,275.15,635,260.31A21.18,21.18,0,0,1,639.65,247q4.64-5.92,12.81-5.93a18.09,18.09,0,0,1,13.35,5.19,22.71,22.71,0,0,0-.74,6.68q0,10,7.24,15.77t17.63,5.75a19.67,19.67,0,0,0,4.45-.37Q707.38,255.5,720.74,255.49Z"/><path class="cls-1" d="M893.67,309.67q2.22,0,2.22,7.05t-6.12,17.44q-6.12,10.39-9.65,15.77t-12.06,17.26q-8.53,11.88-14.84,17.07t-16,12.25q-16.34,11.88-42.49,11.87t-37.85-13.17Q745.24,382,745.23,360.88q0-39,27.65-71.44T838,257q16.71,0,26.72,8.72t10,20.79a33.91,33.91,0,0,1-6.68,21q-6.67,8.91-15.21,8.91-16.71,0-16.7-13.73,0-4.46,9.28-8.54a15.56,15.56,0,0,0,6.68-5.56q3-4.08,3-10.77,0-9.64-10.39-9.64-22.26,0-44.16,32.28t-21.89,62.53q0,30.25,26.35,30.25,36.74,0,71.62-56.78,7-11.13,11.69-18.93T893.67,309.67Z"/><path class="cls-1" d="M934.48,256.23l18.56.37h3.71q-5.94,4.45-15.77,24.12t-14.66,29.69q-4.83,10-11,27.09t-6.12,27.83q0,10.77,7,10.77,4.82,0,13.55-6.5a72.24,72.24,0,0,0,14.28-13.73,221,221,0,0,0,12.43-18.37q6.87-11.13,11.88-19.3t5.75-8.16q2.23,0,2.23,6.87a25.62,25.62,0,0,1-3.71,13.17q-13.74,23-25.05,38.41a140,140,0,0,1-25.79,26.9q-14.48,11.5-26.35,11.51-20.79,0-20.78-28.95,0-44.9,30.8-99.45Q918.53,256.22,934.48,256.23Zm50.47-49h-1.48q-7.43,0-14.29,6.3a40.14,40.14,0,0,0-9.83,13q-9.66-3.71-9.65-13.36t8.91-19.48q8.89-9.82,17.07-9.83t12.24,3.71A12.22,12.22,0,0,1,992,197Q992,202.8,985,207.25Z"/><path class="cls-1" d="M124.84,50c22.35,36.73,1.81,90,1.81,90s-56.8-6.24-79.15-43S45.69,7,45.69,7,102.48,13.23,124.84,50Z"/><path class="cls-1" d="M263.79,98.68c-41,25.84-101.36,3.66-101.36,3.66s6-64.06,47-89.89S310.76,8.79,310.76,8.79,304.75,72.85,263.79,98.68Z"/><path class="cls-1" d="M51.44,209.17c19.34,15.24,19,48,19,48s-31.72,8-51.07-7.23-19-48-19-48S32.09,193.93,51.44,209.17Z"/><path class="cls-1" d="M50.12,404.63C44.84,331,54.84,259.41,78.28,203.1,104.42,140.3,146,98.45,198.4,82.06l3,9.54C151.85,107.08,112.48,147,87.51,206.94c-22.85,54.9-32.59,124.85-27.41,197Z"/></svg>